<?xml version="1.0" encoding="UTF-8" standalone="no"?>
<!-- Created with Inkscape (http://www.inkscape.org/) -->
<svg
   xmlns:dc="http://purl.org/dc/elements/1.1/"
   xmlns:cc="http://web.resource.org/cc/"
   xmlns:rdf="http://www.w3.org/1999/02/22-rdf-syntax-ns#"
   xmlns:svg="http://www.w3.org/2000/svg"
   xmlns="http://www.w3.org/2000/svg"
   xmlns:xlink="http://www.w3.org/1999/xlink"
   xmlns:sodipodi="http://sodipodi.sourceforge.net/DTD/sodipodi-0.dtd"
   xmlns:inkscape="http://www.inkscape.org/namespaces/inkscape"
   version="1.0"
   width="400"
   height="360"
   id="svg2"
   sodipodi:version="0.32"
   inkscape:version="0.45.1"
   sodipodi:docname="P_Games.svg"
   inkscape:output_extension="org.inkscape.output.svg.inkscape"
   sodipodi:docbase="D:\התקיה של שמעון נעים">
  <metadata
     id="metadata52">
    <rdf:RDF>
      <cc:Work
         rdf:about="">
        <dc:format>image/svg+xml</dc:format>
        <dc:type
           rdf:resource="http://purl.org/dc/dcmitype/StillImage" />
      </cc:Work>
    </rdf:RDF>
  </metadata>
  <sodipodi:namedview
     inkscape:window-height="573"
     inkscape:window-width="744"
     inkscape:pageshadow="2"
     inkscape:pageopacity="0.0"
     guidetolerance="10.0"
     gridtolerance="10.0"
     objecttolerance="10.0"
     borderopacity="1.0"
     bordercolor="#666666"
     pagecolor="#ffffff"
     id="base"
     inkscape:zoom="1.0472222"
     inkscape:cx="155.96446"
     inkscape:cy="183.29252"
     inkscape:window-x="44"
     inkscape:window-y="58"
     inkscape:current-layer="svg2" />
  <defs
     id="defs4">
    <linearGradient
       id="linearGradient2996">
      <stop
         style="stop-color:black;stop-opacity:1"
         offset="0"
         id="stop2998" />
      <stop
         style="stop-color:black;stop-opacity:0"
         offset="1"
         id="stop3000" />
    </linearGradient>
    <linearGradient
       id="linearGradient2984">
      <stop
         style="stop-color:white;stop-opacity:1"
         offset="0"
         id="stop2986" />
      <stop
         style="stop-color:#b6b6b6;stop-opacity:1"
         offset="1"
         id="stop2988" />
    </linearGradient>
    <linearGradient
       id="linearGradient2855">
      <stop
         style="stop-color:#919191;stop-opacity:1"
         offset="0"
         id="stop2857" />
      <stop
         style="stop-color:#b3b3b3;stop-opacity:1"
         offset="1"
         id="stop2859" />
    </linearGradient>
    <linearGradient
       id="linearGradient2847">
      <stop
         style="stop-color:#444;stop-opacity:1"
         offset="0"
         id="stop2849" />
      <stop
         style="stop-color:#444;stop-opacity:0"
         offset="1"
         id="stop2851" />
    </linearGradient>
    <linearGradient
       x1="92.604424"
       y1="304.50995"
       x2="263.82959"
       y2="26.290426"
       id="linearGradient3199"
       xlink:href="#linearGradient2889"
       gradientUnits="userSpaceOnUse" />
    <linearGradient
       id="linearGradient2889">
      <stop
         style="stop-color:#a0a3e1;stop-opacity:1"
         offset="0"
         id="stop2891" />
      <stop
         style="stop-color:#dedcfa;stop-opacity:1"
         offset="1"
         id="stop2893" />
    </linearGradient>
    <linearGradient
       x1="273.75882"
       y1="133.89272"
       x2="259.68753"
       y2="119.82143"
       id="linearGradient2915"
       xlink:href="#linearGradient2855"
       gradientUnits="userSpaceOnUse" />
    <linearGradient
       x1="273.75882"
       y1="133.89272"
       x2="259.68753"
       y2="119.82143"
       id="linearGradient2917"
       xlink:href="#linearGradient2847"
       gradientUnits="userSpaceOnUse" />
    <linearGradient
       x1="273.75882"
       y1="133.89272"
       x2="259.68753"
       y2="119.82143"
       id="linearGradient2919"
       xlink:href="#linearGradient2855"
       gradientUnits="userSpaceOnUse" />
    <linearGradient
       x1="273.75882"
       y1="133.89272"
       x2="259.68753"
       y2="119.82143"
       id="linearGradient2921"
       xlink:href="#linearGradient2847"
       gradientUnits="userSpaceOnUse" />
    <linearGradient
       x1="273.75882"
       y1="133.89272"
       x2="259.68753"
       y2="119.82143"
       id="linearGradient2976"
       xlink:href="#linearGradient2855"
       gradientUnits="userSpaceOnUse" />
    <linearGradient
       x1="273.75882"
       y1="133.89272"
       x2="259.68753"
       y2="119.82143"
       id="linearGradient2978"
       xlink:href="#linearGradient2847"
       gradientUnits="userSpaceOnUse" />
    <linearGradient
       x1="273.75882"
       y1="133.89272"
       x2="259.68753"
       y2="119.82143"
       id="linearGradient2980"
       xlink:href="#linearGradient2855"
       gradientUnits="userSpaceOnUse" />
    <linearGradient
       x1="273.75882"
       y1="133.89272"
       x2="259.68753"
       y2="119.82143"
       id="linearGradient2982"
       xlink:href="#linearGradient2847"
       gradientUnits="userSpaceOnUse" />
    <linearGradient
       x1="181.15857"
       y1="173.11131"
       x2="213.90044"
       y2="243.11131"
       id="linearGradient2990"
       xlink:href="#linearGradient2984"
       gradientUnits="userSpaceOnUse" />
    <linearGradient
       x1="132.04787"
       y1="112.67857"
       x2="120.61929"
       y2="61.964287"
       id="linearGradient3002"
       xlink:href="#linearGradient2996"
       gradientUnits="userSpaceOnUse" />
    <mask
       id="mask3114">
      <g
         id="g3073">
        <rect
           id="rect3039"
           style="opacity:1;fill:url(#linearGradient3120);fill-opacity:1;fill-rule:nonzero;stroke:none;stroke-width:15;stroke-linecap:round;stroke-linejoin:round;stroke-miterlimit:4;stroke-dasharray:none;stroke-dashoffset:0;stroke-opacity:1"
           y="198.07254"
           x="24.04163"
           height="33.941124"
           width="316.78384" />
        <rect
           id="rect3053"
           style="opacity:1;fill:url(#linearGradient3122);fill-opacity:1;fill-rule:nonzero;stroke:none;stroke-width:15;stroke-linecap:round;stroke-linejoin:round;stroke-miterlimit:4;stroke-dasharray:none;stroke-dashoffset:0;stroke-opacity:1"
           y="144.25"
           x="24"
           height="59.75"
           width="41" />
        <rect
           id="rect3063"
           style="opacity:1;fill:url(#linearGradient3124);fill-opacity:1;fill-rule:nonzero;stroke:none;stroke-width:15;stroke-linecap:round;stroke-linejoin:round;stroke-miterlimit:4;stroke-dasharray:none;stroke-dashoffset:0;stroke-opacity:1"
           y="118"
           x="58"
           height="78"
           width="313.5" />
      </g>
    </mask>
    <linearGradient
       gradientUnits="userSpaceOnUse"
       xlink:href="#linearGradient3065"
       id="linearGradient3124"
       y2="157"
       x2="371.5"
       y1="157"
       x1="58" />
    <linearGradient
       gradientTransform="translate(-0.5,6.75)"
       gradientUnits="userSpaceOnUse"
       xlink:href="#linearGradient3055"
       id="linearGradient3122"
       y2="137.49948"
       x2="51.5"
       y1="197.3537"
       x1="51.5" />
    <linearGradient
       gradientUnits="userSpaceOnUse"
       xlink:href="#linearGradient3041"
       id="linearGradient3120"
       y2="215.04311"
       x2="340.82547"
       y1="215.04311"
       x1="24.04163" />
    <linearGradient
       gradientUnits="userSpaceOnUse"
       xlink:href="#linearGradient3065"
       id="linearGradient3112"
       y2="157"
       x2="371.5"
       y1="157"
       x1="58" />
    <linearGradient
       gradientTransform="translate(-0.5,6.75)"
       gradientUnits="userSpaceOnUse"
       xlink:href="#linearGradient3055"
       id="linearGradient3110"
       y2="137.49948"
       x2="51.5"
       y1="197.3537"
       x1="51.5" />
    <linearGradient
       gradientUnits="userSpaceOnUse"
       xlink:href="#linearGradient3041"
       id="linearGradient3108"
       y2="215.04311"
       x2="340.82547"
       y1="215.04311"
       x1="24.04163" />
    <linearGradient
       gradientUnits="userSpaceOnUse"
       xlink:href="#linearGradient3065"
       id="linearGradient3088"
       y2="157"
       x2="371.5"
       y1="157"
       x1="58" />
    <linearGradient
       gradientTransform="translate(-0.5,6.75)"
       gradientUnits="userSpaceOnUse"
       xlink:href="#linearGradient3055"
       id="linearGradient3086"
       y2="137.49948"
       x2="51.5"
       y1="197.3537"
       x1="51.5" />
    <linearGradient
       gradientUnits="userSpaceOnUse"
       xlink:href="#linearGradient3041"
       id="linearGradient3084"
       y2="215.04311"
       x2="340.82547"
       y1="215.04311"
       x1="24.04163" />
    <linearGradient
       gradientUnits="userSpaceOnUse"
       xlink:href="#linearGradient3065"
       id="linearGradient3071"
       y2="157"
       x2="371.5"
       y1="157"
       x1="58" />
    <linearGradient
       gradientTransform="translate(-0.5,6.75)"
       gradientUnits="userSpaceOnUse"
       xlink:href="#linearGradient3055"
       id="linearGradient3061"
       y2="137.49948"
       x2="51.5"
       y1="197.3537"
       x1="51.5" />
    <linearGradient
       gradientTransform="translate(-218.9322,-174.2077)"
       gradientUnits="userSpaceOnUse"
       xlink:href="#linearGradient3041"
       id="linearGradient3051"
       y2="215.04311"
       x2="340.82547"
       y1="215.04311"
       x1="24.04163" />
    <linearGradient
       gradientUnits="userSpaceOnUse"
       xlink:href="#linearGradient3041"
       id="linearGradient3047"
       y2="215.04311"
       x2="340.82547"
       y1="215.04311"
       x1="24.04163" />
    <linearGradient
       gradientUnits="userSpaceOnUse"
       xlink:href="#linearGradient2889"
       id="linearGradient2895"
       y2="26.290426"
       x2="263.82959"
       y1="304.50995"
       x1="92.604424" />
    <mask
       id="mask2858">
      <path
         id="use2848"
         style="fill:#e8e7fe;fill-opacity:1;fill-rule:evenodd;stroke:black;stroke-width:3.125;stroke-linecap:butt;stroke-linejoin:miter;stroke-miterlimit:4;stroke-dasharray:none;stroke-opacity:1"
         d="M 100,24 C 100,24 88.5,66.5 134,76 C 179.5,85.5 217,67 217,67 C 217,67 211,163.46447 196,192.46447 C 181,221.46447 141.5,254 118,254 C 94.5,254 76,238.5 70,223.5 C 64,208.5 60.5,128 71,102 C 78.202941,84.164147 73,78.5 82,49.5 C 87.643273,31.316121 100.5,23 100,24 z " />
    </mask>
    <mask
       id="mask2799">
      <path
         id="use2796"
         style="fill:#e8e7fe;fill-opacity:1;fill-rule:evenodd;stroke:black;stroke-width:3.125;stroke-linecap:butt;stroke-linejoin:round;stroke-miterlimit:4;stroke-dasharray:none;stroke-opacity:1"
         d="M 168.99397,144.76334 C 168.99397,144.76334 214.49314,156.63269 246.14473,148.71979 C 277.79633,140.80689 309.44793,103.22062 309.44793,103.22062 C 309.44793,103.22062 344.06686,191.25162 348.02331,221.91411 C 351.97976,252.57659 350.00153,289.17375 327.25195,311.92334 C 304.50236,334.67292 255.67246,325.40751 232.29716,302.03221 C 218.4143,288.14936 204.60201,261.4786 192.73266,233.78346 C 180.86331,206.08831 168.00485,143.77423 168.99397,144.76334 z " />
    </mask>
    <linearGradient
       id="linearGradient2812">
      <stop
         id="stop2814"
         offset="0"
         style="stop-color:black;stop-opacity:1" />
      <stop
         id="stop2816"
         offset="1"
         style="stop-color:white;stop-opacity:0" />
    </linearGradient>
    <linearGradient
       id="linearGradient2308">
      <stop
         id="stop2310"
         offset="0"
         style="stop-color:#a0a3e1;stop-opacity:1" />
      <stop
         id="stop2312"
         offset="1"
         style="stop-color:#dedcfa;stop-opacity:1" />
    </linearGradient>
    <linearGradient
       id="linearGradient3041">
      <stop
         id="stop3043"
         offset="0"
         style="stop-color:#d7d7d7;stop-opacity:1" />
      <stop
         id="stop3045"
         offset="1"
         style="stop-color:white;stop-opacity:1" />
    </linearGradient>
    <linearGradient
       id="linearGradient3055">
      <stop
         id="stop3057"
         offset="0"
         style="stop-color:#d7d7d7;stop-opacity:1" />
      <stop
         id="stop3059"
         offset="1"
         style="stop-color:#c8c8c8;stop-opacity:1" />
    </linearGradient>
    <linearGradient
       id="linearGradient3065">
      <stop
         id="stop3067"
         offset="0"
         style="stop-color:#c8c8c8;stop-opacity:1" />
      <stop
         id="stop3069"
         offset="1"
         style="stop-color:#646464;stop-opacity:1" />
    </linearGradient>
    <linearGradient
       inkscape:collect="always"
       xlink:href="#linearGradient2889"
       id="linearGradient2521"
       gradientUnits="userSpaceOnUse"
       x1="92.604424"
       y1="304.50995"
       x2="263.82959"
       y2="26.290426"
       gradientTransform="matrix(0.851641,-0.524127,0.524127,0.851641,-45.27941,132.512)" />
    <linearGradient
       gradientUnits="userSpaceOnUse"
       xlink:href="#linearGradient2996"
       id="linearGradient2757"
       y2="61.964287"
       x2="120.61929"
       y1="112.67857"
       x1="132.04787" />
    <linearGradient
       gradientUnits="userSpaceOnUse"
       xlink:href="#linearGradient2984"
       id="linearGradient2755"
       y2="243.11131"
       x2="213.90044"
       y1="173.11131"
       x1="181.15857" />
    <linearGradient
       gradientUnits="userSpaceOnUse"
       xlink:href="#linearGradient2847"
       id="linearGradient2753"
       y2="119.82143"
       x2="259.68753"
       y1="133.89272"
       x1="273.75882" />
    <linearGradient
       gradientUnits="userSpaceOnUse"
       xlink:href="#linearGradient2855"
       id="linearGradient2751"
       y2="119.82143"
       x2="259.68753"
       y1="133.89272"
       x1="273.75882" />
    <linearGradient
       gradientUnits="userSpaceOnUse"
       xlink:href="#linearGradient2847"
       id="linearGradient2749"
       y2="119.82143"
       x2="259.68753"
       y1="133.89272"
       x1="273.75882" />
    <linearGradient
       gradientUnits="userSpaceOnUse"
       xlink:href="#linearGradient2855"
       id="linearGradient2747"
       y2="119.82143"
       x2="259.68753"
       y1="133.89272"
       x1="273.75882" />
    <linearGradient
       gradientUnits="userSpaceOnUse"
       xlink:href="#linearGradient2847"
       id="linearGradient2745"
       y2="119.82143"
       x2="259.68753"
       y1="133.89272"
       x1="273.75882" />
    <linearGradient
       gradientUnits="userSpaceOnUse"
       xlink:href="#linearGradient2855"
       id="linearGradient2743"
       y2="119.82143"
       x2="259.68753"
       y1="133.89272"
       x1="273.75882" />
    <linearGradient
       gradientUnits="userSpaceOnUse"
       xlink:href="#linearGradient2847"
       id="linearGradient2741"
       y2="119.82143"
       x2="259.68753"
       y1="133.89272"
       x1="273.75882" />
    <linearGradient
       gradientUnits="userSpaceOnUse"
       xlink:href="#linearGradient2855"
       id="linearGradient2739"
       y2="119.82143"
       x2="259.68753"
       y1="133.89272"
       x1="273.75882" />
    <linearGradient
       id="linearGradient2733">
      <stop
         id="stop2735"
         offset="0"
         style="stop-color:#a0a3e1;stop-opacity:1" />
      <stop
         id="stop2737"
         offset="1"
         style="stop-color:#dedcfa;stop-opacity:1" />
    </linearGradient>
    <linearGradient
       gradientUnits="userSpaceOnUse"
       xlink:href="#linearGradient2889"
       id="linearGradient2731"
       y2="26.290426"
       x2="263.82959"
       y1="304.50995"
       x1="92.604424" />
    <linearGradient
       id="linearGradient2725">
      <stop
         id="stop2727"
         offset="0"
         style="stop-color:#444;stop-opacity:1" />
      <stop
         id="stop2729"
         offset="1"
         style="stop-color:#444;stop-opacity:0" />
    </linearGradient>
    <linearGradient
       id="linearGradient2719">
      <stop
         id="stop2721"
         offset="0"
         style="stop-color:#919191;stop-opacity:1" />
      <stop
         id="stop2723"
         offset="1"
         style="stop-color:#b3b3b3;stop-opacity:1" />
    </linearGradient>
    <linearGradient
       id="linearGradient2713">
      <stop
         id="stop2715"
         offset="0"
         style="stop-color:white;stop-opacity:1" />
      <stop
         id="stop2717"
         offset="1"
         style="stop-color:#b6b6b6;stop-opacity:1" />
    </linearGradient>
    <linearGradient
       id="linearGradient2707">
      <stop
         id="stop2709"
         offset="0"
         style="stop-color:black;stop-opacity:1" />
      <stop
         id="stop2711"
         offset="1"
         style="stop-color:black;stop-opacity:0" />
    </linearGradient>
    <linearGradient
       inkscape:collect="always"
       xlink:href="#linearGradient2996"
       id="linearGradient2844"
       gradientUnits="userSpaceOnUse"
       gradientTransform="translate(442.65252,125.57033)"
       x1="132.04787"
       y1="112.67857"
       x2="120.61929"
       y2="61.964287" />
    <linearGradient
       inkscape:collect="always"
       xlink:href="#linearGradient2984"
       id="linearGradient2846"
       gradientUnits="userSpaceOnUse"
       gradientTransform="translate(442.65252,125.57033)"
       x1="181.15857"
       y1="173.11131"
       x2="213.90044"
       y2="243.11131" />
    <linearGradient
       inkscape:collect="always"
       xlink:href="#linearGradient2855"
       id="linearGradient2848"
       gradientUnits="userSpaceOnUse"
       x1="273.75882"
       y1="133.89272"
       x2="259.68753"
       y2="119.82143" />
    <linearGradient
       inkscape:collect="always"
       xlink:href="#linearGradient2847"
       id="linearGradient2850"
       gradientUnits="userSpaceOnUse"
       x1="273.75882"
       y1="133.89272"
       x2="259.68753"
       y2="119.82143" />
    <linearGradient
       inkscape:collect="always"
       xlink:href="#linearGradient2855"
       id="linearGradient2852"
       gradientUnits="userSpaceOnUse"
       x1="273.75882"
       y1="133.89272"
       x2="259.68753"
       y2="119.82143" />
    <linearGradient
       inkscape:collect="always"
       xlink:href="#linearGradient2847"
       id="linearGradient2854"
       gradientUnits="userSpaceOnUse"
       x1="273.75882"
       y1="133.89272"
       x2="259.68753"
       y2="119.82143" />
    <linearGradient
       inkscape:collect="always"
       xlink:href="#linearGradient2855"
       id="linearGradient2856"
       gradientUnits="userSpaceOnUse"
       x1="273.75882"
       y1="133.89272"
       x2="259.68753"
       y2="119.82143" />
    <linearGradient
       inkscape:collect="always"
       xlink:href="#linearGradient2847"
       id="linearGradient2858"
       gradientUnits="userSpaceOnUse"
       x1="273.75882"
       y1="133.89272"
       x2="259.68753"
       y2="119.82143" />
    <linearGradient
       inkscape:collect="always"
       xlink:href="#linearGradient2855"
       id="linearGradient2860"
       gradientUnits="userSpaceOnUse"
       x1="273.75882"
       y1="133.89272"
       x2="259.68753"
       y2="119.82143" />
    <linearGradient
       inkscape:collect="always"
       xlink:href="#linearGradient2847"
       id="linearGradient2862"
       gradientUnits="userSpaceOnUse"
       x1="273.75882"
       y1="133.89272"
       x2="259.68753"
       y2="119.82143" />
    <linearGradient
       y2="38.118332"
       x2="68.843483"
       y1="9.1136208"
       x1="54.287079"
       gradientTransform="matrix(0.985864,0.24445,-0.252157,1.016945,-24.58715,-15.18839)"
       gradientUnits="userSpaceOnUse"
       id="linearGradient3859"
       xlink:href="#linearGradient2296"
       inkscape:collect="always" />
    <linearGradient
       y2="44.769524"
       x2="50.808903"
       y1="17.249048"
       x1="34.561821"
       gradientTransform="matrix(0.882464,0,0,1.123232,0.12316,-12.49411)"
       gradientUnits="userSpaceOnUse"
       id="linearGradient3857"
       xlink:href="#linearGradient3116"
       inkscape:collect="always" />
    <linearGradient
       y2="41.370472"
       x2="51.861248"
       y1="24.984463"
       x1="35.321308"
       gradientTransform="matrix(0.893089,0,0,1.11971,0.123711,-12.57232)"
       gradientUnits="userSpaceOnUse"
       id="linearGradient3855"
       xlink:href="#linearGradient5460"
       inkscape:collect="always" />
    <linearGradient
       y2="18.534204"
       x2="78.000000"
       y1="18.534204"
       x1="48.000000"
       gradientTransform="matrix(0.969324,0.303467,-0.313034,0.999884,-26.51354,-28.87764)"
       gradientUnits="userSpaceOnUse"
       id="linearGradient3853"
       xlink:href="#linearGradient2296"
       inkscape:collect="always" />
    <linearGradient
       y2="18.534204"
       x2="78.000000"
       y1="18.534204"
       x1="48.000000"
       gradientTransform="matrix(1.015717,0,0,1.04774,-38.62402,-6.542519)"
       gradientUnits="userSpaceOnUse"
       id="linearGradient3805"
       xlink:href="#linearGradient2296"
       inkscape:collect="always" />
    <linearGradient
       y2="57.055389"
       x2="69.181168"
       y1="32.234478"
       x1="38.897804"
       gradientTransform="matrix(0.882464,0,0,1.123229,-18.45703,-0.304225)"
       gradientUnits="userSpaceOnUse"
       id="linearGradient3803"
       xlink:href="#linearGradient5460"
       inkscape:collect="always" />
    <linearGradient
       y2="39.318127"
       x2="50.871357"
       y1="23.405266"
       x1="42.150032"
       gradientTransform="matrix(0.893089,0,0,1.119709,-18.45684,-0.381848)"
       gradientUnits="userSpaceOnUse"
       id="linearGradient3801"
       xlink:href="#linearGradient5460"
       inkscape:collect="always" />
    <linearGradient
       id="linearGradient5460">
      <stop
         style="stop-color:#e5e5e5;stop-opacity:1.0000000;"
         offset="0.0000000"
         id="stop5462" />
      <stop
         style="stop-color:#c8c8c8;stop-opacity:1.0000000;"
         offset="1.0000000"
         id="stop5464" />
    </linearGradient>
    <linearGradient
       id="linearGradient2296"
       inkscape:collect="always">
      <stop
         id="stop2298"
         offset="0"
         style="stop-color:#ffffff;stop-opacity:1;" />
      <stop
         id="stop2300"
         offset="1"
         style="stop-color:#ffffff;stop-opacity:0;" />
    </linearGradient>
    <radialGradient
       gradientUnits="userSpaceOnUse"
       gradientTransform="matrix(1,0,0,0.651376,0,10.75754)"
       r="15.571428"
       fy="30.857143"
       fx="22.571428"
       cy="30.857143"
       cx="22.571428"
       id="radialGradient3564"
       xlink:href="#linearGradient3558"
       inkscape:collect="always" />
    <linearGradient
       id="linearGradient3558"
       inkscape:collect="always">
      <stop
         id="stop3560"
         offset="0"
         style="stop-color:#000000;stop-opacity:1;" />
      <stop
         id="stop3562"
         offset="1"
         style="stop-color:#000000;stop-opacity:0;" />
    </linearGradient>
    <linearGradient
       id="linearGradient3116">
      <stop
         id="stop3118"
         offset="0.0000000"
         style="stop-color:#e5e5e5;stop-opacity:1.0000000;" />
      <stop
         id="stop3120"
         offset="1.0000000"
         style="stop-color:#dfdfdf;stop-opacity:1" />
    </linearGradient>
  </defs>
  <path
     id="path2869"
     style="fill:url(#linearGradient2521);fill-opacity:1;stroke:none;stroke-width:3.125;stroke-linecap:butt;stroke-linejoin:round;stroke-miterlimit:4;stroke-dasharray:none;stroke-dashoffset:0;stroke-opacity:1"
     d="M 361.81179,80.415831 C 405.81082,151.90878 369.03348,254.4506 279.6673,309.44939 C 190.30112,364.44819 82.187243,351.07704 38.188207,279.58409 C -5.8108301,208.09114 30.966509,105.54933 120.33269,50.550529 C 209.69887,-4.448266 317.81275,8.9228838 361.81179,80.415831 z " />
  <g
     transform="matrix(1.114616,0,0,1.114616,-52.7168,-160.16761)"
     id="g2965">
    <g
       id="g2955">
      <path
         d="M 216.21875,170.0625 L 203,253.25 L 266.64427,308.53674 L 321.7544,191.57686"
         style="fill:#323232;fill-opacity:1;fill-rule:evenodd;stroke:none;stroke-width:1px;stroke-linecap:butt;stroke-linejoin:miter;stroke-opacity:1"
         id="path2900" />
      <path
         d="M 363.65048,190.78136 L 343.67471,273.9548 L 266.60007,308.60303 L 290.28815,194.58206"
         style="fill:#000000;fill-opacity:1;fill-rule:evenodd;stroke:none;stroke-width:1px;stroke-linecap:butt;stroke-linejoin:miter;stroke-opacity:1"
         id="path2898" />
      <path
         d="M 216.04194,170.0101 L 293.47013,136.42253 L 363.82725,190.86975 L 283.21708,228.34641 L 216.04194,170.0101 z "
         style="fill:#646464;fill-opacity:1;fill-rule:evenodd;stroke:none;stroke-width:1px;stroke-linecap:butt;stroke-linejoin:miter;stroke-opacity:1"
         id="path2896" />
    </g>
    <g
       transform="translate(0,-6)"
       style="opacity:0.5"
       id="g2930">
      <path
         d="M 157,152.5 C 157,156.91828 153.41828,160.5 149,160.5 C 144.58172,160.5 141,156.91828 141,152.5 C 141,148.08172 144.58172,144.5 149,144.5 C 153.41828,144.5 157,148.08172 157,152.5 z "
         transform="matrix(0.432925,0.712022,-1.096875,0.301206,394.9171,10.66344)"
         style="opacity:1;fill:#ffffff;fill-opacity:1;fill-rule:evenodd;stroke:none;stroke-width:15;stroke-linecap:round;stroke-linejoin:round;stroke-miterlimit:4;stroke-dasharray:none;stroke-dashoffset:0;stroke-opacity:1"
         id="path2902" />
      <path
         d="M 157,152.5 C 157,156.91828 153.41828,160.5 149,160.5 C 144.58172,160.5 141,156.91828 141,152.5 C 141,148.08172 144.58172,144.5 149,144.5 C 153.41828,144.5 157,148.08172 157,152.5 z "
         transform="matrix(0.432925,0.712022,-1.096875,0.301206,414.0974,24.71714)"
         style="opacity:1;fill:#ffffff;fill-opacity:1;fill-rule:evenodd;stroke:none;stroke-width:15;stroke-linecap:round;stroke-linejoin:round;stroke-miterlimit:4;stroke-dasharray:none;stroke-dashoffset:0;stroke-opacity:1"
         id="path2904" />
      <path
         d="M 157,152.5 C 157,156.91828 153.41828,160.5 149,160.5 C 144.58172,160.5 141,156.91828 141,152.5 C 141,148.08172 144.58172,144.5 149,144.5 C 153.41828,144.5 157,148.08172 157,152.5 z "
         transform="matrix(0.432925,0.712022,-1.096875,0.301206,434.2499,40.27349)"
         style="opacity:1;fill:#ffffff;fill-opacity:1;fill-rule:evenodd;stroke:none;stroke-width:15;stroke-linecap:round;stroke-linejoin:round;stroke-miterlimit:4;stroke-dasharray:none;stroke-dashoffset:0;stroke-opacity:1"
         id="path2906" />
      <path
         d="M 157,152.5 C 157,156.91828 153.41828,160.5 149,160.5 C 144.58172,160.5 141,156.91828 141,152.5 C 141,148.08172 144.58172,144.5 149,144.5 C 153.41828,144.5 157,148.08172 157,152.5 z "
         transform="matrix(0.464482,0.763923,-1.176829,0.323162,360.0014,13.28263)"
         style="opacity:1;fill:#ffffff;fill-opacity:1;fill-rule:evenodd;stroke:none;stroke-width:15;stroke-linecap:round;stroke-linejoin:round;stroke-miterlimit:4;stroke-dasharray:none;stroke-dashoffset:0;stroke-opacity:1"
         id="path2908" />
      <path
         d="M 157,152.5 C 157,156.91828 153.41828,160.5 149,160.5 C 144.58172,160.5 141,156.91828 141,152.5 C 141,148.08172 144.58172,144.5 149,144.5 C 153.41828,144.5 157,148.08172 157,152.5 z "
         transform="matrix(0.464482,0.763923,-1.176829,0.323162,380.5798,28.36075)"
         style="opacity:1;fill:#ffffff;fill-opacity:1;fill-rule:evenodd;stroke:none;stroke-width:15;stroke-linecap:round;stroke-linejoin:round;stroke-miterlimit:4;stroke-dasharray:none;stroke-dashoffset:0;stroke-opacity:1"
         id="path2910" />
      <path
         d="M 157,152.5 C 157,156.91828 153.41828,160.5 149,160.5 C 144.58172,160.5 141,156.91828 141,152.5 C 141,148.08172 144.58172,144.5 149,144.5 C 153.41828,144.5 157,148.08172 157,152.5 z "
         transform="matrix(0.464482,0.763923,-1.176829,0.323162,402.2012,45.05104)"
         style="opacity:1;fill:#ffffff;fill-opacity:1;fill-rule:evenodd;stroke:none;stroke-width:15;stroke-linecap:round;stroke-linejoin:round;stroke-miterlimit:4;stroke-dasharray:none;stroke-dashoffset:0;stroke-opacity:1"
         id="path2912" />
      <path
         d="M 157,152.5 C 157,156.91828 153.41828,160.5 149,160.5 C 144.58172,160.5 141,156.91828 141,152.5 C 141,148.08172 144.58172,144.5 149,144.5 C 153.41828,144.5 157,148.08172 157,152.5 z "
         transform="matrix(0.663282,0,-0.248731,0.870558,282.07,94.86877)"
         style="opacity:1;fill:#ffffff;fill-opacity:1;fill-rule:evenodd;stroke:none;stroke-width:15;stroke-linecap:round;stroke-linejoin:round;stroke-miterlimit:4;stroke-dasharray:none;stroke-dashoffset:0;stroke-opacity:1"
         id="path2914" />
      <path
         d="M 157,152.5 C 157,156.91828 153.41828,160.5 149,160.5 C 144.58172,160.5 141,156.91828 141,152.5 C 141,148.08172 144.58172,144.5 149,144.5 C 153.41828,144.5 157,148.08172 157,152.5 z "
         transform="matrix(0.663282,0,-0.248731,0.870558,258.7355,123.1531)"
         style="opacity:1;fill:#ffffff;fill-opacity:1;fill-rule:evenodd;stroke:none;stroke-width:15;stroke-linecap:round;stroke-linejoin:round;stroke-miterlimit:4;stroke-dasharray:none;stroke-dashoffset:0;stroke-opacity:1"
         id="path2916" />
      <path
         d="M 157,152.5 C 157,156.91828 153.41828,160.5 149,160.5 C 144.58172,160.5 141,156.91828 141,152.5 C 141,148.08172 144.58172,144.5 149,144.5 C 153.41828,144.5 157,148.08172 157,152.5 z "
         transform="matrix(0.663282,0,-0.248731,0.870558,231.8655,154.9729)"
         style="opacity:1;fill:#ffffff;fill-opacity:1;fill-rule:evenodd;stroke:none;stroke-width:15;stroke-linecap:round;stroke-linejoin:round;stroke-miterlimit:4;stroke-dasharray:none;stroke-dashoffset:0;stroke-opacity:1"
         id="path2918" />
      <path
         d="M 157,152.5 C 157,156.91828 153.41828,160.5 149,160.5 C 144.58172,160.5 141,156.91828 141,152.5 C 141,148.08172 144.58172,144.5 149,144.5 C 153.41828,144.5 157,148.08172 157,152.5 z "
         transform="matrix(0.191077,-0.713108,0.864301,0.518203,78.74653,272.5337)"
         style="opacity:1;fill:#ffffff;fill-opacity:1;fill-rule:evenodd;stroke:none;stroke-width:15;stroke-linecap:round;stroke-linejoin:round;stroke-miterlimit:4;stroke-dasharray:none;stroke-dashoffset:0;stroke-opacity:1"
         id="path2920" />
      <path
         d="M 157,152.5 C 157,156.91828 153.41828,160.5 149,160.5 C 144.58172,160.5 141,156.91828 141,152.5 C 141,148.08172 144.58172,144.5 149,144.5 C 153.41828,144.5 157,148.08172 157,152.5 z "
         transform="matrix(0.223357,-0.833578,1.010313,0.605746,76.63655,268.3282)"
         style="opacity:1;fill:#ffffff;fill-opacity:1;fill-rule:evenodd;stroke:none;stroke-width:15;stroke-linecap:round;stroke-linejoin:round;stroke-miterlimit:4;stroke-dasharray:none;stroke-dashoffset:0;stroke-opacity:1"
         id="path2922" />
      <path
         d="M 157,152.5 C 157,156.91828 153.41828,160.5 149,160.5 C 144.58172,160.5 141,156.91828 141,152.5 C 141,148.08172 144.58172,144.5 149,144.5 C 153.41828,144.5 157,148.08172 157,152.5 z "
         transform="matrix(0.223357,-0.833578,1.010313,0.605746,39.43157,238.5624)"
         style="opacity:1;fill:#ffffff;fill-opacity:1;fill-rule:evenodd;stroke:none;stroke-width:15;stroke-linecap:round;stroke-linejoin:round;stroke-miterlimit:4;stroke-dasharray:none;stroke-dashoffset:0;stroke-opacity:1"
         id="path2924" />
      <path
         d="M 157,152.5 C 157,156.91828 153.41828,160.5 149,160.5 C 144.58172,160.5 141,156.91828 141,152.5 C 141,148.08172 144.58172,144.5 149,144.5 C 153.41828,144.5 157,148.08172 157,152.5 z "
         transform="matrix(0.191077,-0.713108,0.864301,0.518203,92.8887,311.4246)"
         style="opacity:1;fill:#ffffff;fill-opacity:1;fill-rule:evenodd;stroke:none;stroke-width:15;stroke-linecap:round;stroke-linejoin:round;stroke-miterlimit:4;stroke-dasharray:none;stroke-dashoffset:0;stroke-opacity:1"
         id="path2926" />
      <path
         d="M 157,152.5 C 157,156.91828 153.41828,160.5 149,160.5 C 144.58172,160.5 141,156.91828 141,152.5 C 141,148.08172 144.58172,144.5 149,144.5 C 153.41828,144.5 157,148.08172 157,152.5 z "
         transform="matrix(0.191077,-0.713108,0.864301,0.518203,58.94754,283.1403)"
         style="opacity:1;fill:#ffffff;fill-opacity:1;fill-rule:evenodd;stroke:none;stroke-width:15;stroke-linecap:round;stroke-linejoin:round;stroke-miterlimit:4;stroke-dasharray:none;stroke-dashoffset:0;stroke-opacity:1"
         id="path2928" />
    </g>
  </g>
  <g
     id="layer1"
     inkscape:label="Layer 1"
     transform="matrix(3.3475405,0,0,4.416971,32.309897,37.902854)">
    <path
       transform="matrix(1.408115,0,0,0.492958,-7.856805,28.28872)"
       d="M 38.142857 30.857143 A 15.571428 10.142858 0 1 1  7,30.857143 A 15.571428 10.142858 0 1 1  38.142857 30.857143 z"
       sodipodi:ry="10.142858"
       sodipodi:rx="15.571428"
       sodipodi:cy="30.857143"
       sodipodi:cx="22.571428"
       id="path3556"
       style="opacity:0.38636361;color:#000000;fill:url(#radialGradient3564);fill-opacity:1;fill-rule:nonzero;stroke:none;stroke-width:1;stroke-linecap:round;stroke-linejoin:round;marker:none;marker-start:none;marker-mid:none;marker-end:none;stroke-miterlimit:4;stroke-dasharray:none;stroke-dashoffset:0;stroke-opacity:1;visibility:visible;display:inline;overflow:visible"
       sodipodi:type="arc" />
    <g
       transform="matrix(0.98028,-0.197617,0.197617,0.98028,-10.72835,1.085105)"
       id="g3794">
      <g
         id="g2304"
         transform="matrix(0.965364,0.260908,-0.260908,0.965364,11.34921,-0.522676)">
        <rect
           style="fill:url(#linearGradient3801);fill-opacity:1;fill-rule:nonzero;stroke:#888a85;stroke-width:1.00000167;stroke-linecap:round;stroke-linejoin:miter;stroke-miterlimit:4;stroke-dashoffset:0;stroke-opacity:1"
           id="rect2306"
           width="30.930361"
           height="39.032627"
           x="-1.9805312"
           y="8.2107315"
           ry="2.8284323"
           rx="3.0304639"
           transform="matrix(0.965384,-0.260833,0.260833,0.965384,0,0)" />
        <rect
           style="fill:url(#linearGradient3803);fill-opacity:1;fill-rule:nonzero;stroke:#ffffff;stroke-width:1.0000025;stroke-linecap:round;stroke-linejoin:miter;stroke-miterlimit:4;stroke-dashoffset:0;stroke-opacity:1"
           id="rect2308"
           width="28.997335"
           height="37.150211"
           x="-1.0130478"
           y="9.1018763"
           ry="1.9445504"
           rx="2.2349753"
           transform="matrix(0.965376,-0.260864,0.260803,0.965392,0,0)" />
      </g>
      <path
         transform="translate(0.176776,7.24784)"
         sodipodi:nodetypes="ccccccc"
         id="path2294"
         d="M 10.130389,22.794181 C 22.980885,26.961539 29.367399,17.052488 40.601904,22.794181 L 38.721929,3.5888283 C 38.721929,3.5888283 38.11114,1.4341087 36.70666,1.6919747 L 12.249217,1.922697 C 10.654669,1.7815811 10.44653,2.8886233 10.479394,4.0674121 L 10.130389,22.794181 z "
         style="opacity:0.51648356;fill:url(#linearGradient3805);fill-opacity:1;fill-rule:evenodd;stroke:none;stroke-width:0.25pt;stroke-linecap:butt;stroke-linejoin:miter;stroke-opacity:1" />
      <path
         style="fill:#000000;fill-opacity:1;fill-rule:evenodd;stroke:none;stroke-width:0.99999988;stroke-linecap:butt;stroke-linejoin:miter;stroke-miterlimit:4;stroke-dasharray:none;stroke-opacity:1"
         d="M 17.6875,12.28125 C 14.13478,15.630644 12.705188,16.554443 12.6875,18.4375 C 12.670309,20.268031 14.981028,21.868396 17,20.71875 C 17.064192,21.65549 17.094533,23.274814 16.53125,23.9375 C 16.61964,23.937501 19,23.96875 19,23.96875 C 18.999999,23.968751 18.387557,21.938779 18.3125,20.59375 C 20.52189,21.985625 22.669676,20.474531 22.6875,18.34375 C 22.706845,16.109567 21.406126,15.397146 17.6875,12.28125 z "
         id="path3059" />
    </g>
    <g
       transform="translate(-1,0.25)"
       id="g3827">
      <g
         transform="translate(0,-1.875)"
         id="g3844">
        <g
           transform="translate(2.5,2.75)"
           id="g3807">
          <g
             id="g3042"
             transform="translate(0.176776,7.24784)">
            <path
               sodipodi:nodetypes="ccccccc"
               id="path3055"
               d="M 11.249051,13.68551 C 22.267512,21.50188 31.322859,13.953532 40.328776,22.789518 L 45.504535,4.7780871 L 44.31062,2.2533867 L 19.506897,-5.5996203 L 16.789787,-4.2944189 L 11.249051,13.68551 z "
               style="opacity:0.51648356;fill:url(#linearGradient3853);fill-opacity:1;fill-rule:evenodd;stroke:none;stroke-width:0.25pt;stroke-linecap:butt;stroke-linejoin:miter;stroke-opacity:1" />
          </g>
          <rect
             style="fill:url(#linearGradient3855);fill-opacity:1;fill-rule:nonzero;stroke:#888a85;stroke-width:1.00000191;stroke-linecap:round;stroke-linejoin:miter;stroke-miterlimit:4;stroke-dashoffset:0;stroke-opacity:1"
             id="rect7756"
             width="30.930372"
             height="39.032639"
             x="16.600031"
             y="-3.9797387"
             ry="2.8284333"
             rx="3.0304649"
             transform="matrix(0.966464,0.256804,-0.256804,0.966464,0,0)" />
          <rect
             style="fill:url(#linearGradient3857);fill-opacity:1;fill-rule:nonzero;stroke:#ffffff;stroke-width:1.0000031;stroke-linecap:round;stroke-linejoin:miter;stroke-miterlimit:4;stroke-dashoffset:0;stroke-opacity:1"
             id="rect7758"
             width="28.997335"
             height="37.150257"
             x="17.567137"
             y="-3.0879984"
             ry="1.9445531"
             rx="2.2349749"
             transform="matrix(0.966472,0.256773,-0.256834,0.966456,0,0)" />
          <path
             style="fill:#cc0000;fill-opacity:1;fill-rule:evenodd;stroke:none;stroke-width:0.99999988;stroke-linecap:butt;stroke-linejoin:miter;stroke-miterlimit:4;stroke-dasharray:none;stroke-opacity:1"
             d="M 28.219209,18.579429 C 32.016664,16.349471 35.371252,20.241547 34.574307,23.107833 C 33.845761,25.728116 31.535908,26.457569 25.327822,29.802045 C 21.304975,24.065321 19.745801,22.573204 20.607912,19.463712 C 21.49938,16.244665 25.660598,14.764478 28.219209,18.579429 z "
             id="path920"
             sodipodi:nodetypes="czczc" />
        </g>
        <path
           sodipodi:nodetypes="ccccccc"
           id="path3820"
           d="M 15.408724,24.666097 C 26.878573,31.803664 32.987287,22.750612 42.509751,31.027325 L 47.031675,13.797161 C 47.29684,12.824889 47.013482,12.056174 45.599269,11.70262 L 22.576749,5.2715507 C 21.250924,4.9179973 20.120085,5.8543752 19.943308,6.7382587 L 15.408724,24.666097 z "
           style="opacity:0.51648356;fill:url(#linearGradient3859);fill-opacity:1;fill-rule:evenodd;stroke:none;stroke-width:0.25pt;stroke-linecap:butt;stroke-linejoin:miter;stroke-opacity:1" />
      </g>
    </g>
  </g>
  <g
     id="g2823"
     transform="translate(-413.4748,-91.671088)">
    <path
       id="path3012"
       style="opacity:0.3;fill:#000000;fill-opacity:1;fill-rule:evenodd;stroke:#000000;stroke-width:5;stroke-linecap:butt;stroke-linejoin:round;stroke-miterlimit:4;stroke-dasharray:none;stroke-opacity:1"
       d="M 679.40742,265.89665 C 679.40742,265.89665 560.2775,319.8222 544.40742,328.7538 C 465.27726,373.28783 565.38997,506.08674 632.97884,412.32523 C 632.97884,412.32523 753.76855,358.61544 767.26456,349.46808 C 848.27627,294.55975 744.03469,167.56458 679.40742,265.89665 z " />
    <path
       id="path2994"
       style="fill:none;fill-opacity:0.75;fill-rule:evenodd;stroke:url(#linearGradient2844);stroke-width:7.5;stroke-linecap:butt;stroke-linejoin:miter;stroke-miterlimit:4;stroke-dasharray:none;stroke-opacity:1"
       d="M 621.22395,275.57033 C 584.19532,244.60847 554.57504,220.3052 572.29538,179.4989" />
    <path
       id="path2992"
       style="fill:#ffffff;fill-opacity:1;fill-rule:nonzero;stroke:#000000;stroke-width:3.75;stroke-linecap:round;stroke-linejoin:round;stroke-miterlimit:4;stroke-dasharray:none;stroke-dashoffset:12.5;stroke-opacity:1"
       d="M 630.5409,277.4789 C 630.54404,286.40739 623.30695,293.64703 614.37846,293.64703 C 605.44997,293.64703 598.21288,286.40739 598.21602,277.4789 C 598.21288,268.55041 605.44997,261.31077 614.37846,261.31077 C 623.30695,261.31077 630.54404,268.55041 630.5409,277.4789 L 630.5409,277.4789 z " />
    <path
       id="path1957"
       style="fill:url(#linearGradient2846);fill-opacity:1;fill-rule:evenodd;stroke:#000000;stroke-width:5;stroke-linecap:butt;stroke-linejoin:round;stroke-miterlimit:4;stroke-dasharray:none;stroke-opacity:1"
       d="M 663.36681,249.85604 C 663.36681,249.85604 544.23689,303.78159 528.36681,312.71319 C 449.23665,357.24722 549.34936,490.04613 616.93823,396.28462 C 616.93823,396.28462 737.72794,342.57483 751.22395,333.42747 C 832.23566,278.51914 727.99408,151.52397 663.36681,249.85604 z " />
    <g
       id="g3004"
       transform="translate(436.93823,132.71319)">
      <g
         id="g2911"
         transform="translate(77.5,-48.57143)">
        <path
           id="path2901"
           style="opacity:0.5;fill:url(#linearGradient2848);fill-opacity:1;fill-rule:nonzero;stroke:url(#linearGradient2850);stroke-width:1.25961804;stroke-linecap:round;stroke-linejoin:round;stroke-miterlimit:4;stroke-dasharray:none;stroke-dashoffset:12.5;stroke-opacity:1"
           transform="matrix(-1.488547,0,0,-1.488547,584.6461,364.5884)"
           d="M 276.07143,127.5 C 276.07143,132.92423 271.67423,137.32143 266.25,137.32143 C 260.82577,137.32143 256.42857,132.92423 256.42857,127.5 C 256.42857,122.07577 260.82577,117.67857 266.25,117.67857 C 271.67423,117.67857 276.07143,122.07577 276.07143,127.5 L 276.07143,127.5 z " />
        <path
           id="path2845"
           style="opacity:1;fill:url(#linearGradient2852);fill-opacity:1;fill-rule:nonzero;stroke:url(#linearGradient2854);stroke-width:1.875;stroke-linecap:round;stroke-linejoin:round;stroke-miterlimit:4;stroke-dasharray:none;stroke-dashoffset:12.5;stroke-opacity:1"
           transform="translate(-77.92967,47.2986)"
           d="M 276.07143,127.5 C 276.07143,132.92423 271.67423,137.32143 266.25,137.32143 C 260.82577,137.32143 256.42857,132.92423 256.42857,127.5 C 256.42857,122.07577 260.82577,117.67857 266.25,117.67857 C 271.67423,117.67857 276.07143,122.07577 276.07143,127.5 L 276.07143,127.5 z " />
      </g>
      <use
         xlink:href="#g2911"
         height="360"
         width="400"
         y="0"
         x="0"
         id="use2923"
         transform="translate(36.07143,8.571429)" />
      <use
         xlink:href="#g2911"
         height="360"
         width="400"
         y="0"
         x="0"
         id="use2925"
         transform="translate(19.64286,41.42857)" />
      <use
         xlink:href="#g2911"
         height="360"
         width="400"
         y="0"
         x="0"
         id="use2927"
         transform="translate(-15.71429,32.5)" />
    </g>
    <g
       id="g2959"
       transform="matrix(0.879121,-0.324781,0.400862,0.906383,364.97371,188.18395)">
      <path
         id="path2929"
         style="opacity:0.5;fill:url(#linearGradient2856);fill-opacity:1;fill-rule:nonzero;stroke:url(#linearGradient2858);stroke-width:1.30826628;stroke-linecap:round;stroke-linejoin:round;stroke-miterlimit:4;stroke-dasharray:none;stroke-dashoffset:12.5;stroke-opacity:1"
         transform="matrix(-3.663259,0,0,-3.663259,1093.016,705.1493)"
         d="M 276.07143,127.5 C 276.07143,132.92423 271.67423,137.32143 266.25,137.32143 C 260.82577,137.32143 256.42857,132.92423 256.42857,127.5 C 256.42857,122.07577 260.82577,117.67857 266.25,117.67857 C 271.67423,117.67857 276.07143,122.07577 276.07143,127.5 L 276.07143,127.5 z " />
      <path
         id="path2937"
         style="opacity:1;fill:url(#linearGradient2860);fill-opacity:1;fill-rule:nonzero;stroke:url(#linearGradient2862);stroke-width:1.2166661;stroke-linecap:round;stroke-linejoin:round;stroke-miterlimit:4;stroke-dasharray:none;stroke-dashoffset:12.5;stroke-opacity:1"
         transform="matrix(2.878007,0,0,2.878007,-648.5961,-128.8621)"
         d="M 276.07143,127.5 C 276.07143,132.92423 271.67423,137.32143 266.25,137.32143 C 260.82577,137.32143 256.42857,132.92423 256.42857,127.5 C 256.42857,122.07577 260.82577,117.67857 266.25,117.67857 C 271.67423,117.67857 276.07143,122.07577 276.07143,127.5 L 276.07143,127.5 z " />
      <g
         id="g2953"
         transform="translate(0.946341,0.592528)">
        <g
           id="g2947">
          <path
             id="path2943"
             style="fill:#ffffff;fill-opacity:1;fill-rule:evenodd;stroke:#000000;stroke-width:1.03862154px;stroke-linecap:round;stroke-linejoin:round;stroke-opacity:0.74074073"
             d="M 116.72691,214.7409 L 109.50088,227.17035 C 109.50088,227.17035 113.11391,225.64808 116.72694,225.64808 C 120.33995,225.64808 123.95297,227.17035 123.95297,227.17035 L 116.72691,214.7409 z " />
          <use
             xlink:href="#path2943"
             height="360"
             width="400"
             y="0"
             x="0"
             id="use2945"
             transform="matrix(1,0,0,-1,0,474.9825)" />
        </g>
        <use
           xlink:href="#g2947"
           height="360"
           width="400"
           y="0"
           x="0"
           id="use2951"
           transform="matrix(0,1,-1,0,354.2182,120.7643)" />
      </g>
    </g>
  </g>
</svg>
